<mxfile host="65bd71144e" modified="2021-03-12T08:35:31.888Z" agent="5.0 (Windows NT 10.0; Win64; x64) AppleWebKit/537.36 (KHTML, like Gecko) Code/1.54.1 Chrome/87.0.4280.141 Electron/11.3.0 Safari/537.36" version="14.2.4" etag="qhZfj8z3wyAykmw20haI" type="embed">
    <diagram id="wffx1apEMBlqOANyhLe6" name="Page-1">
        <mxGraphModel dx="1118" dy="647" grid="1" gridSize="10" guides="1" tooltips="1" connect="1" arrows="1" fold="1" page="1" pageScale="1" pageWidth="827" pageHeight="1169" background="#EEEEEE" math="0" shadow="0">
            <root>
                <mxCell id="0"/>
                <mxCell id="1" parent="0"/>
                <mxCell id="2" value="等待线程A" style="rounded=0;whiteSpace=wrap;html=1;sketch=0;strokeColor=#909090;fillColor=#F5AB50;fontColor=#1A1A1A;" vertex="1" parent="1">
                    <mxGeometry x="120" y="170" width="120" height="60" as="geometry"/>
                </mxCell>
                <mxCell id="3" value="等待线程B" style="rounded=0;whiteSpace=wrap;html=1;sketch=0;strokeColor=#909090;fillColor=#F5AB50;fontColor=#1A1A1A;" vertex="1" parent="1">
                    <mxGeometry x="310" y="170" width="120" height="60" as="geometry"/>
                </mxCell>
                <mxCell id="4" value="" style="endArrow=classic;html=1;strokeColor=#182E3E;fontColor=#1A1A1A;" edge="1" parent="1" target="3">
                    <mxGeometry width="50" height="50" relative="1" as="geometry">
                        <mxPoint x="242" y="200" as="sourcePoint"/>
                        <mxPoint x="440" y="310" as="targetPoint"/>
                        <Array as="points">
                            <mxPoint x="270" y="200"/>
                        </Array>
                    </mxGeometry>
                </mxCell>
                <mxCell id="5" value="nextWaiter" style="text;html=1;strokeColor=none;fillColor=none;align=center;verticalAlign=middle;whiteSpace=wrap;rounded=0;sketch=0;fontColor=#1A1A1A;" vertex="1" parent="1">
                    <mxGeometry x="250" y="180" width="50" height="20" as="geometry"/>
                </mxCell>
            </root>
        </mxGraphModel>
    </diagram>
</mxfile>